<?xml version="1.0" encoding="utf-8"?>
<!-- Generator: Adobe Illustrator 16.0.0, SVG Export Plug-In . SVG Version: 6.00 Build 0)  -->
<!DOCTYPE svg PUBLIC "-//W3C//DTD SVG 1.1//EN" "http://www.w3.org/Graphics/SVG/1.1/DTD/svg11.dtd">
<svg version="1.1" id="Capa_1" xmlns="http://www.w3.org/2000/svg" xmlns:xlink="http://www.w3.org/1999/xlink" x="0px" y="0px"
	 width="611.981px" height="611.981px" viewBox="0 0 611.981 611.981" enable-background="new 0 0 611.981 611.981"
	 xml:space="preserve">
<g>
	<g id="twitter">
		<g>
			<path fill="#FFFFFF" d="M605.95,114.16c-4.908-3.356-11.387-3.245-16.145,0.319c-3.285,2.455-8.182,4.632-13.895,6.532
				c18.82-23.342,19.098-38.944,18.82-42.786c-0.375-4.993-3.412-9.417-7.947-11.539c-4.549-2.136-9.875-1.664-13.953,1.276
				c-25.658,18.363-51.328,22.357-66.307,22.884c-24.383-22.648-55.906-35.061-89.414-35.061
				c-72.494,0-131.48,58.957-131.48,131.451c0,5.243,0.305,10.485,0.929,15.672C165.581,199.899,67.457,85.867,66.472,84.703
				c-2.898-3.44-7.268-5.256-11.789-4.854c-4.48,0.402-8.488,2.94-10.763,6.824c-30.789,52.633-18.224,102.506,2.885,137.387
				c-3.925-2.108-8.668-2.247-12.746-0.208c-4.632,2.302-7.614,7.004-7.697,12.191c-0.901,55.296,24.354,88.443,49.832,107.749
				c-1.872,0.764-3.578,1.942-4.979,3.481c-3.314,3.634-4.466,8.75-3.01,13.453c17.711,57.128,59.318,78.538,88.513,86.558
				c-33.48,23.604-74.893,29.139-106.362,29.139c-20.096,0-33.938-2.385-34.077-2.414c-6.269-1.109-12.565,2.262-15.131,8.143
				c-2.552,5.879-0.749,12.744,4.383,16.6c63.146,47.475,139.397,57.447,192.253,57.447c41.773,0,70.801-6.104,72.271-6.422
				c271.307-63.354,281.611-306.618,281.182-350.943c50.855-46.725,58.957-64.963,60.232-69.512
				C613.065,123.605,610.846,117.517,605.95,114.16z M527.897,182.604c-3.148,2.857-4.812,6.99-4.521,11.234
				c0.18,2.635,15.006,264.801-259.366,328.877c-0.264,0.055-27.6,5.756-66.239,5.756c-36.004,0-83.658-4.924-129.135-24.881
				c41.635-2.664,92.687-15.438,129.412-56.059c3.675-4.078,4.577-9.918,2.344-14.939c-2.233-5.008-7.239-8.236-12.718-8.236
				c-2.58,0-57.168-0.652-84.49-51.398c12.648,0.401,24.118-1.472,32.62-5.34c5.45-2.482,8.668-8.171,8.03-14.119
				c-0.638-5.949-5.048-10.818-10.901-12.08c-2.954-0.637-65.795-14.951-77.126-81.231c9.847,3.759,21.83,6.366,33.425,4.66
				c5.381-0.804,9.805-4.674,11.303-9.902c1.498-5.229-0.208-10.859-4.341-14.382c-2.773-2.358-62.702-54.436-36.669-122.588
				C94.433,153.41,189.422,236.819,303.967,230.37c4.133-0.236,7.961-2.316,10.401-5.658c2.441-3.343,3.273-7.614,2.248-11.636
				c-2.15-8.391-3.232-17.087-3.232-25.824c0-57.182,46.531-103.713,103.74-103.713c28.029,0,54.283,10.998,73.951,30.983
				c2.551,2.58,6.018,4.078,9.65,4.133l2.137,0.014c10.193,0,26.172-1.234,44.492-7.143c-5.865,6.199-13.494,13.189-23.383,20.831
				c-4.854,3.759-6.656,10.25-4.453,15.963c2.205,5.728,7.977,9.334,14.021,8.834c2.248-0.18,12.121-1.04,24.34-3.231
				C550.182,161.801,540.377,171.273,527.897,182.604z"/>
		</g>
	</g>
</g>
</svg>
